<svg xmlns="http://www.w3.org/2000/svg" xmlns:xlink="http://www.w3.org/1999/xlink" xmlns:lucid="lucid" width="1194.38" height="752"><g transform="translate(-334.15 -35)" lucid:page-tab-id="0_0"><path d="M1160 480h70.07v120.12H1160V480z" fill="#29aae1"/><path d="M1186.74 563.4h35.63c1.12 0 1.12 0 1.12 1.2 0 1.08 0 1.08-1.13 1.08h-35.63c-1.2 0-1.2 0-1.2-1.08 0-1.2 0-1.2 1.2-1.2zM1186.8 569.52h35.5c1.54 0 1.54 0 1.54 1.56v.36c0 1.56 0 1.56-1.54 1.56h-35.5c-1.6 0-1.6 0-1.6-1.56v-.36c0-1.56 0-1.56 1.6-1.56zM1186.95 577.08h35.56c1.55 0 1.55 0 1.55 1.56v.36c0 1.56 0 1.56-1.54 1.56h-35.55c-1.54 0-1.54 0-1.54-1.56v-.36c0-1.56 0-1.56 1.55-1.56zM1219.36 538.32c0 3.12-2.52 5.64-5.74 5.64s-5.8-2.52-5.8-5.64c0-3.12 2.58-5.64 5.8-5.64 3.22 0 5.74 2.52 5.74 5.64z" fill="#fff"/><path d="M1217.05 538.32c0 1.92-1.54 3.48-3.5 3.48s-3.57-1.56-3.57-3.48 1.6-3.48 3.57-3.48c1.96 0 3.5 1.56 3.5 3.48z" fill="#54bbe7"/><use xlink:href="#a" transform="matrix(1,0,0,1,1130,600) translate(65 17.94444444444445)"/><use xlink:href="#b" transform="matrix(1,0,0,1,1130,600) translate(65 44.611111111111114)"/><use xlink:href="#c" transform="matrix(1,0,0,1,1130,600) translate(20.000000000000007 71.27777777777779)"/><use xlink:href="#d" transform="matrix(1,0,0,1,1130,600) translate(91.48148148148147 71.27777777777779)"/><use xlink:href="#e" transform="matrix(1,0,0,1,1130,600) translate(-89.19753086419749 97.94444444444446)"/><path d="M603.75 474.14c0 10.6-11.92 19.14-26.63 19.14-14.77 0-26.7-8.55-26.7-19.14 0-10.58 11.93-19.14 26.7-19.14 14.7 0 26.63 8.56 26.63 19.14zM554.25 495.17h46.27c14.25 0 14.25 0 14.25 10.3 0 10.28 0 10.28-14.25 10.28h-46.27c-14.25 0-14.25 0-14.25-10.3 0-10.28 0-10.28 14.25-10.28z" fill="#29aae1"/><path d="M557.4 512.42h39.38v42.5H557.4v-42.5z" fill="#29aae1"/><path d="M557.4 553.3h17.77v46.85H557.4V553.3zM580.27 553.75h16.5v46.1h-16.5v-46.1zM540.15 502.85h13.5v41.03h-13.5v-41.03zM601.05 503.43h13.65v41.04h-13.65v-41.04z" fill="#29aae1"/><use xlink:href="#f" transform="matrix(1,0,0,1,510,600) translate(44.10493827160494 19.444444444444443)"/><path d="M804.86 499.6h-189.5v-2h189.5zm336.64 0h-172v-2h172z" fill="#5e5e5e"/><path d="M615.4 499.6h-.97l-.06-1-.4-1h1.42zM1156.76 498.6l-14.26 4.65v-9.27z" fill="#5e5e5e"/><path d="M1160 498.6l-18.5 6.02V492.6zm-16.5 3.27l10.03-3.26-10.03-3.25z" fill="#5e5e5e"/><use xlink:href="#g" transform="matrix(1,0,0,1,804.8632708456789,487.94625833333333) translate(0 14.222222222222223)"/><use xlink:href="#h" transform="matrix(1,0,0,1,804.8632708456789,487.94625833333333) translate(14.814814814814817 14.222222222222223)"/><use xlink:href="#i" transform="matrix(1,0,0,1,804.8632708456789,487.94625833333333) translate(89.67901234567901 14.222222222222223)"/><path d="M768.95 541H633.2v-2h135.75zm390.05 0h-153.25v-2H1159z" fill="#5e5e5e"/><path d="M1160 541h-1.03v-2h1.03zM632.2 544.64L617.94 540l14.26-4.64z" fill="#5e5e5e"/><path d="M633.2 546l-18.5-6 18.5-6zm-12.03-6l10.03 3.26v-6.52z" fill="#5e5e5e"/><use xlink:href="#j" transform="matrix(1,0,0,1,768.954938271605,529.3333333333334) translate(0 14.222222222222223)"/><use xlink:href="#k" transform="matrix(1,0,0,1,768.954938271605,529.3333333333334) translate(14.814814814814817 14.222222222222223)"/><use xlink:href="#l" transform="matrix(1,0,0,1,768.954938271605,529.3333333333334) translate(94.71604938271605 14.222222222222223)"/><use xlink:href="#m" transform="matrix(1,0,0,1,768.954938271605,529.3333333333334) translate(152.98765432098767 14.222222222222223)"/><path d="M720 61c0-3.3 2.7-6 6-6h328c3.3 0 6 2.7 6 6v213c0 3.3-2.7 6-6 6H726c-3.3 0-6-2.7-6-6z" stroke="#dd3522" stroke-width="3" fill="#fff" fill-opacity="0"/><use xlink:href="#n" transform="matrix(1,0,0,1,720,75) translate(91.64999999999999 14.4)"/><use xlink:href="#o" transform="matrix(1,0,0,1,720,75) translate(177.45 14.4)"/><path d="M950 197.47c0 4.72-3.84 8.54-8.52 8.54H838.52c-4.68 0-8.52-3.8-8.52-8.53v-71.92c0-4.72 3.84-8.55 8.52-8.55h102.96c4.68 0 8.52 3.83 8.52 8.55v71.92z" stroke="#000" stroke-opacity="0" fill="#fcd116"/><path d="M840.3 127.27h99.42v68.48H840.3v-68.48z" stroke="#000" stroke-opacity="0" fill="#fff"/><path d="M872.86 180.34c0 7.56-6.15 13.7-13.72 13.7s-13.7-6.14-13.7-13.7 6.13-13.7 13.7-13.7c7.57 0 13.72 6.14 13.72 13.7z" stroke="#000" stroke-opacity="0" fill="#dd5900"/><path d="M869.43 180.34c0 5.67-4.6 10.27-10.3 10.27-5.66 0-10.27-4.6-10.27-10.26 0-5.67 4.6-10.27 10.28-10.27s10.3 4.6 10.3 10.27z" stroke="#000" stroke-opacity="0" fill="#ff8c00"/><path d="M859.15 190.6c-4 0-7.63-1.53-10.36-4l-1.64 31.2 11.82-11.77 12 11.97.16-1.7-1.63-29.7c-2.75 2.47-6.37 4-10.35 4z" stroke="#000" stroke-opacity="0" fill="#dd5900"/><path d="M928.3 177.12c0 1.06-.84 1.9-1.9 1.9h-43.05c-1.08 0-1.92-.84-1.92-1.9s.84-1.92 1.92-1.92h43.04c1.06 0 1.9.86 1.9 1.92M928.3 166.64c0 1.06-.84 1.92-1.9 1.92h-43.05c-1.08 0-1.92-.86-1.92-1.92 0-1.05.84-1.9 1.92-1.9h43.04c1.06 0 1.9.85 1.9 1.9M928.3 151.24c0 1.05-.83 1.9-1.9 1.9H854.2c-1.06 0-1.9-.85-1.9-1.9 0-1.06.84-1.92 1.9-1.92h72.23c1.07 0 1.9.86 1.9 1.92" stroke="#000" stroke-opacity="0" fill="#7a7a7a"/><use xlink:href="#p" transform="matrix(1,0,0,1,800,227) translate(19.125 14.4)"/><use xlink:href="#q" transform="matrix(1,0,0,1,800,227) translate(48.075 14.4)"/><use xlink:href="#r" transform="matrix(1,0,0,1,800,227) translate(84.025 14.4)"/><path d="M596.14 459.1h-2V262.8h2zM700 168.5h-98.72l-2.65.7-1.77 1.8-.72 2.63v67.82h-2v-68.08l.93-3.42 2.53-2.53 3.4-.92h99z" fill="#5e5e5e"/><path d="M596.14 460.87l-1.44-1.1-.56-.3v-.4h2zM715.26 167.5L701 172.14v-9.28z" fill="#5e5e5e"/><path d="M718.5 167.5l-18.5 6v-12zm-16.5 3.26l10.03-3.26-10.03-3.26z" fill="#5e5e5e"/><use xlink:href="#s" transform="matrix(1,0,0,1,483.14312273957034,241.45417785417382) translate(0 14.222222222222223)"/><use xlink:href="#t" transform="matrix(1,0,0,1,483.14312273957034,241.45417785417382) translate(14.814814814814817 14.222222222222223)"/><use xlink:href="#l" transform="matrix(1,0,0,1,483.14312273957034,241.45417785417382) translate(81.92592592592592 14.222222222222223)"/><use xlink:href="#m" transform="matrix(1,0,0,1,483.14312273957034,241.45417785417382) translate(140.19753086419755 14.222222222222223)"/><path d="M763.5 577H597.77v-2H763.5zm378 0H993.28v-2h148.22z" fill="#5e5e5e"/><path d="M597.8 577h-1.02v-2h1.02zM1156.76 576l-14.26 4.64v-9.28z" fill="#5e5e5e"/><path d="M1160 576l-18.5 6v-12zm-16.5 3.26l10.03-3.26-10.03-3.26z" fill="#5e5e5e"/><use xlink:href="#u" transform="matrix(1,0,0,1,763.4986111111111,565.3333333333334) translate(0 14.222222222222223)"/><use xlink:href="#k" transform="matrix(1,0,0,1,763.4986111111111,565.3333333333334) translate(14.814814814814817 14.222222222222223)"/><use xlink:href="#v" transform="matrix(1,0,0,1,763.4986111111111,565.3333333333334) translate(94.71604938271605 14.222222222222223)"/><use xlink:href="#m" transform="matrix(1,0,0,1,763.4986111111111,565.3333333333334) translate(145.97530864197532 14.222222222222223)"/><path d="M1178.3 479h-2V276.52h2zm-3.47-311.58l2.53 2.53.93 3.42v81.82h-2v-81.57l-.73-2.64-1.77-1.8-2.65-.7H1080v-2h91.42z" fill="#5e5e5e"/><path d="M1178.3 480h-2v-1.03h2zM1079 172.14l-14.26-4.64 14.26-4.64z" fill="#5e5e5e"/><path d="M1080 173.5l-18.5-6 18.5-6zm-12.03-6l10.03 3.26v-6.52z" fill="#5e5e5e"/><use xlink:href="#w" transform="matrix(1,0,0,1,1068.7936222322187,255.1896086369771) translate(0 14.222222222222223)"/><use xlink:href="#t" transform="matrix(1,0,0,1,1068.7936222322187,255.1896086369771) translate(14.814814814814817 14.222222222222223)"/><use xlink:href="#v" transform="matrix(1,0,0,1,1068.7936222322187,255.1896086369771) translate(81.92592592592592 14.222222222222223)"/><use xlink:href="#m" transform="matrix(1,0,0,1,1068.7936222322187,255.1896086369771) translate(133.1851851851852 14.222222222222223)"/><path d="M597.44 634l.7 2.63 1.8 1.78 2.63.72h205.7v2H602.3l-3.4-.92-2.54-2.53-.92-3.42v-33.4h2zm580.8.25l-.9 3.42-2.54 2.53-3.42.92H965.16v-2h205.96l2.64-.7 1.78-1.8.7-2.63V618.6h2z" fill="#5e5e5e"/><path d="M597.44 600.88h-2v-1.02h1.33v-3h.67zM1181.9 617.62h-9.28l4.63-14.26z" fill="#5e5e5e"/><path d="M1183.26 618.62h-12.02l6-18.5zm-9.27-2h6.5l-3.25-10.03z" fill="#5e5e5e"/><use xlink:href="#x" transform="matrix(1,0,0,1,808.2689563652722,629.4533333333334) translate(0 14.222222222222223)"/><use xlink:href="#y" transform="matrix(1,0,0,1,808.2689563652722,629.4533333333334) translate(14.814814814814817 14.222222222222223)"/><use xlink:href="#i" transform="matrix(1,0,0,1,808.2689563652722,629.4533333333334) translate(81.92592592592592 14.222222222222223)"/><path d="M480 720.47c0 4.72-3.84 8.54-8.52 8.54H368.52c-4.68 0-8.52-3.8-8.52-8.53v-71.92c0-4.72 3.84-8.55 8.52-8.55h102.96c4.68 0 8.52 3.83 8.52 8.55v71.92z" stroke="#000" stroke-opacity="0" fill="#fcd116"/><path d="M370.3 650.27h99.42v68.48H370.3v-68.48z" stroke="#000" stroke-opacity="0" fill="#fff"/><path d="M402.86 703.34c0 7.56-6.15 13.7-13.72 13.7s-13.7-6.14-13.7-13.7 6.13-13.7 13.7-13.7c7.57 0 13.72 6.14 13.72 13.7z" stroke="#000" stroke-opacity="0" fill="#dd5900"/><path d="M399.43 703.34c0 5.67-4.6 10.27-10.3 10.27-5.66 0-10.27-4.6-10.27-10.26 0-5.67 4.6-10.27 10.28-10.27s10.3 4.6 10.3 10.27z" stroke="#000" stroke-opacity="0" fill="#ff8c00"/><path d="M389.15 713.6c-4 0-7.63-1.53-10.36-4l-1.64 31.2 11.82-11.77 12 11.97.16-1.7-1.63-29.7c-2.75 2.47-6.37 4-10.35 4z" stroke="#000" stroke-opacity="0" fill="#dd5900"/><path d="M458.3 700.12c0 1.06-.84 1.9-1.9 1.9h-43.05c-1.08 0-1.92-.84-1.92-1.9s.84-1.92 1.92-1.92h43.04c1.06 0 1.9.86 1.9 1.92M458.3 689.64c0 1.06-.84 1.92-1.9 1.92h-43.05c-1.08 0-1.92-.86-1.92-1.92 0-1.05.84-1.9 1.92-1.9h43.04c1.06 0 1.9.85 1.9 1.9M458.3 674.24c0 1.05-.83 1.9-1.9 1.9H384.2c-1.06 0-1.9-.85-1.9-1.9 0-1.06.84-1.92 1.9-1.92h72.23c1.07 0 1.9.86 1.9 1.92" stroke="#000" stroke-opacity="0" fill="#7a7a7a"/><g><use xlink:href="#z" transform="matrix(1,0,0,1,330,750) translate(26.150000000000006 14.4)"/><use xlink:href="#r" transform="matrix(1,0,0,1,330,750) translate(77 14.4)"/></g><path d="M420 639V525.85c0-3.3 2.7-6 6-6h95.65" stroke="#5e5e5e" stroke-width="2" fill="none"/><path d="M421 640h-2v-1.03h2z" fill="#5e5e5e"/><path d="M536.9 519.85l-14.25 4.64v-9.3z" stroke="#5e5e5e" stroke-width="2" fill="#5e5e5e"/><path d="M1500 720.47c0 4.72-3.84 8.54-8.52 8.54h-102.96c-4.68 0-8.52-3.8-8.52-8.53v-71.92c0-4.72 3.84-8.55 8.52-8.55h102.96c4.68 0 8.52 3.83 8.52 8.55v71.92z" stroke="#000" stroke-opacity="0" fill="#fcd116"/><path d="M1390.3 650.27h99.42v68.48h-99.43v-68.48z" stroke="#000" stroke-opacity="0" fill="#fff"/><path d="M1422.86 703.34c0 7.56-6.15 13.7-13.72 13.7s-13.7-6.14-13.7-13.7 6.13-13.7 13.7-13.7c7.57 0 13.72 6.14 13.72 13.7z" stroke="#000" stroke-opacity="0" fill="#dd5900"/><path d="M1419.43 703.34c0 5.67-4.6 10.27-10.3 10.27-5.66 0-10.27-4.6-10.27-10.26 0-5.67 4.6-10.27 10.28-10.27s10.3 4.6 10.3 10.27z" stroke="#000" stroke-opacity="0" fill="#ff8c00"/><path d="M1409.15 713.6c-4 0-7.63-1.53-10.36-4l-1.64 31.2 11.82-11.77 12 11.97.16-1.7-1.63-29.7c-2.75 2.47-6.37 4-10.35 4z" stroke="#000" stroke-opacity="0" fill="#dd5900"/><path d="M1478.3 700.12c0 1.06-.84 1.9-1.9 1.9h-43.05c-1.08 0-1.92-.84-1.92-1.9s.84-1.92 1.92-1.92h43.04c1.06 0 1.9.86 1.9 1.92M1478.3 689.64c0 1.06-.84 1.92-1.9 1.92h-43.05c-1.08 0-1.92-.86-1.92-1.92 0-1.05.84-1.9 1.92-1.9h43.04c1.06 0 1.9.85 1.9 1.9M1478.3 674.24c0 1.05-.83 1.9-1.9 1.9h-72.22c-1.06 0-1.9-.85-1.9-1.9 0-1.06.84-1.92 1.9-1.92h72.23c1.07 0 1.9.86 1.9 1.92" stroke="#000" stroke-opacity="0" fill="#7a7a7a"/><g><use xlink:href="#A" transform="matrix(1,0,0,1,1350,750) translate(22.625 14.4)"/><use xlink:href="#r" transform="matrix(1,0,0,1,1350,750) translate(80.525 14.4)"/></g><path d="M1440 639v-93c0-3.3-2.7-6-6-6h-185.43" stroke="#5e5e5e" stroke-width="2" fill="none"/><path d="M1441 640h-2v-1.03h2z" fill="#5e5e5e"/><path d="M1233.3 540l14.27-4.64v9.28z" stroke="#5e5e5e" stroke-width="2" fill="#5e5e5e"/><defs><path fill="#333" d="M185-189c-5-48-123-54-124 2 14 75 158 14 163 119 3 78-121 87-175 55-17-10-28-26-33-46l33-7c5 56 141 63 141-1 0-78-155-14-162-118-5-82 145-84 179-34 5 7 8 16 11 25" id="B"/><path fill="#333" d="M100-194c63 0 86 42 84 106H49c0 40 14 67 53 68 26 1 43-12 49-29l28 8c-11 28-37 45-77 45C44 4 14-33 15-96c1-61 26-98 85-98zm52 81c6-60-76-77-97-28-3 7-6 17-6 28h103" id="C"/><path fill="#333" d="M114-163C36-179 61-72 57 0H25l-1-190h30c1 12-1 29 2 39 6-27 23-49 58-41v29" id="D"/><path fill="#333" d="M108 0H70L1-190h34L89-25l56-165h34" id="E"/><g id="c"><use transform="matrix(0.06172839506172839,0,0,0.06172839506172839,0,0)" xlink:href="#B"/><use transform="matrix(0.06172839506172839,0,0,0.06172839506172839,14.814814814814813,0)" xlink:href="#C"/><use transform="matrix(0.06172839506172839,0,0,0.06172839506172839,27.160493827160494,0)" xlink:href="#D"/><use transform="matrix(0.06172839506172839,0,0,0.06172839506172839,34.50617283950617,0)" xlink:href="#E"/><use transform="matrix(0.06172839506172839,0,0,0.06172839506172839,45.61728395061728,0)" xlink:href="#C"/><use transform="matrix(0.06172839506172839,0,0,0.06172839506172839,57.962962962962955,0)" xlink:href="#D"/></g><path fill="#333" d="M141-36C126-15 110 5 73 4 37 3 15-17 15-53c-1-64 63-63 125-63 3-35-9-54-41-54-24 1-41 7-42 31l-33-3c5-37 33-52 76-52 45 0 72 20 72 64v82c-1 20 7 32 28 27v20c-31 9-61-2-59-35zM48-53c0 20 12 33 32 33 41-3 63-29 60-74-43 2-92-5-92 41" id="F"/><path fill="#333" d="M59-47c-2 24 18 29 38 22v24C64 9 27 4 27-40v-127H5v-23h24l9-43h21v43h35v23H59v120" id="G"/><g id="d"><use transform="matrix(0.06172839506172839,0,0,0.06172839506172839,0,0)" xlink:href="#F"/><use transform="matrix(0.06172839506172839,0,0,0.06172839506172839,12.345679012345679,0)" xlink:href="#G"/></g><path fill="#333" d="M106-169C34-169 62-67 57 0H25v-261h32l-1 103c12-21 28-36 61-36 89 0 53 116 60 194h-32v-121c2-32-8-49-39-48" id="H"/><path fill="#333" d="M115-194c55 1 70 41 70 98S169 2 115 4C84 4 66-9 55-30l1 105H24l-1-265h31l2 30c10-21 28-34 59-34zm-8 174c40 0 45-34 45-75s-6-73-45-74c-42 0-51 32-51 76 0 43 10 73 51 73" id="I"/><path fill="#333" d="M135-143c-3-34-86-38-87 0 15 53 115 12 119 90S17 21 10-45l28-5c4 36 97 45 98 0-10-56-113-15-118-90-4-57 82-63 122-42 12 7 21 19 24 35" id="J"/><path fill="#333" d="M33-154v-36h34v36H33zM33 0v-36h34V0H33" id="K"/><path fill="#333" d="M0 4l72-265h28L28 4H0" id="L"/><path fill="#333" d="M210-169c-67 3-38 105-44 169h-31v-121c0-29-5-50-35-48C34-165 62-65 56 0H25l-1-190h30c1 10-1 24 2 32 10-44 99-50 107 0 11-21 27-35 58-36 85-2 47 119 55 194h-31v-121c0-29-5-49-35-48" id="M"/><path fill="#333" d="M179-190L93 31C79 59 56 82 12 73V49c39 6 53-20 64-50L1-190h34L92-34l54-156h33" id="N"/><path fill="#333" d="M96-169c-40 0-48 33-48 73s9 75 48 75c24 0 41-14 43-38l32 2c-6 37-31 61-74 61-59 0-76-41-82-99-10-93 101-131 147-64 4 7 5 14 7 22l-32 3c-4-21-16-35-41-35" id="O"/><path fill="#333" d="M84 4C-5 8 30-112 23-190h32v120c0 31 7 50 39 49 72-2 45-101 50-169h31l1 190h-30c-1-10 1-25-2-33-11 22-28 36-60 37" id="P"/><path fill="#333" d="M85-194c31 0 48 13 60 33l-1-100h32l1 261h-30c-2-10 0-23-3-31C134-8 116 4 85 4 32 4 16-35 15-94c0-66 23-100 70-100zm9 24c-40 0-46 34-46 75 0 40 6 74 45 74 42 0 51-32 51-76 0-42-9-74-50-73" id="Q"/><path fill="#333" d="M117-194c89-4 53 116 60 194h-32v-121c0-31-8-49-39-48C34-167 62-67 57 0H25l-1-190h30c1 10-1 24 2 32 11-22 29-35 61-36" id="R"/><path fill="#333" d="M100-194c62-1 85 37 85 99 1 63-27 99-86 99S16-35 15-95c0-66 28-99 85-99zM99-20c44 1 53-31 53-75 0-43-8-75-51-75s-53 32-53 75 10 74 51 75" id="S"/><path fill="#333" d="M24-231v-30h32v30H24zM24 0v-190h32V0H24" id="T"/><path fill="#333" d="M33 0v-38h34V0H33" id="U"/><g id="e"><use transform="matrix(0.06172839506172839,0,0,0.06172839506172839,0,0)" xlink:href="#H"/><use transform="matrix(0.06172839506172839,0,0,0.06172839506172839,12.345679012345679,0)" xlink:href="#G"/><use transform="matrix(0.06172839506172839,0,0,0.06172839506172839,18.51851851851852,0)" xlink:href="#G"/><use transform="matrix(0.06172839506172839,0,0,0.06172839506172839,24.691358024691358,0)" xlink:href="#I"/><use transform="matrix(0.06172839506172839,0,0,0.06172839506172839,37.03703703703704,0)" xlink:href="#J"/><use transform="matrix(0.06172839506172839,0,0,0.06172839506172839,48.14814814814815,0)" xlink:href="#K"/><use transform="matrix(0.06172839506172839,0,0,0.06172839506172839,54.320987654320994,0)" xlink:href="#L"/><use transform="matrix(0.06172839506172839,0,0,0.06172839506172839,60.49382716049384,0)" xlink:href="#L"/><use transform="matrix(0.06172839506172839,0,0,0.06172839506172839,66.66666666666667,0)" xlink:href="#M"/><use transform="matrix(0.06172839506172839,0,0,0.06172839506172839,85.12345679012346,0)" xlink:href="#N"/><use transform="matrix(0.06172839506172839,0,0,0.06172839506172839,96.23456790123457,0)" xlink:href="#J"/><use transform="matrix(0.06172839506172839,0,0,0.06172839506172839,107.34567901234568,0)" xlink:href="#C"/><use transform="matrix(0.06172839506172839,0,0,0.06172839506172839,119.69135802469137,0)" xlink:href="#O"/><use transform="matrix(0.06172839506172839,0,0,0.06172839506172839,130.80246913580248,0)" xlink:href="#P"/><use transform="matrix(0.06172839506172839,0,0,0.06172839506172839,143.14814814814815,0)" xlink:href="#D"/><use transform="matrix(0.06172839506172839,0,0,0.06172839506172839,150.49382716049382,0)" xlink:href="#C"/><use transform="matrix(0.06172839506172839,0,0,0.06172839506172839,162.8395061728395,0)" xlink:href="#Q"/><use transform="matrix(0.06172839506172839,0,0,0.06172839506172839,175.18518518518516,0)" xlink:href="#C"/><use transform="matrix(0.06172839506172839,0,0,0.06172839506172839,187.53086419753083,0)" xlink:href="#R"/><use transform="matrix(0.06172839506172839,0,0,0.06172839506172839,199.8765432098765,0)" xlink:href="#Q"/><use transform="matrix(0.06172839506172839,0,0,0.06172839506172839,212.22222222222217,0)" xlink:href="#I"/><use transform="matrix(0.06172839506172839,0,0,0.06172839506172839,224.56790123456784,0)" xlink:href="#S"/><use transform="matrix(0.06172839506172839,0,0,0.06172839506172839,236.9135802469135,0)" xlink:href="#T"/><use transform="matrix(0.06172839506172839,0,0,0.06172839506172839,241.79012345679004,0)" xlink:href="#R"/><use transform="matrix(0.06172839506172839,0,0,0.06172839506172839,254.13580246913574,0)" xlink:href="#G"/><use transform="matrix(0.06172839506172839,0,0,0.06172839506172839,260.30864197530855,0)" xlink:href="#U"/><use transform="matrix(0.06172839506172839,0,0,0.06172839506172839,266.4814814814814,0)" xlink:href="#O"/><use transform="matrix(0.06172839506172839,0,0,0.06172839506172839,277.5925925925925,0)" xlink:href="#S"/><use transform="matrix(0.06172839506172839,0,0,0.06172839506172839,289.93827160493817,0)" xlink:href="#M"/></g><path fill="#333" d="M232-93c-1 65-40 97-104 97C67 4 28-28 28-90v-158h33c8 89-33 224 67 224 102 0 64-133 71-224h33v155" id="V"/><g id="f"><use transform="matrix(0.06172839506172839,0,0,0.06172839506172839,0,0)" xlink:href="#V"/><use transform="matrix(0.06172839506172839,0,0,0.06172839506172839,15.987654320987653,0)" xlink:href="#J"/><use transform="matrix(0.06172839506172839,0,0,0.06172839506172839,27.098765432098766,0)" xlink:href="#C"/><use transform="matrix(0.06172839506172839,0,0,0.06172839506172839,39.44444444444444,0)" xlink:href="#D"/></g><path fill="#333" d="M23 0v-37h61v-169l-59 37v-38l62-41h46v211h57V0H23" id="W"/><use transform="matrix(0.04938271604938272,0,0,0.04938271604938272,0,0)" xlink:href="#W" id="g"/><path fill="#333" d="M240-174c0 40-23 61-54 70L253 0h-59l-57-94H76V0H24v-248c93 4 217-23 216 74zM76-134c48-2 112 12 112-38 0-48-66-32-112-35v73" id="X"/><path fill="#333" d="M185-48c-13 30-37 53-82 52C43 2 14-33 14-96s30-98 90-98c62 0 83 45 84 108H66c0 31 8 55 39 56 18 0 30-7 34-22zm-45-69c5-46-57-63-70-21-2 6-4 13-4 21h74" id="Y"/><path fill="#333" d="M84 4C32 4 15-41 15-95c0-55 18-99 73-99 29 0 47 12 58 34l2-30h48l-1 265h-49V-32C136-9 114 4 84 4zm21-34c32 0 41-29 41-66 0-36-9-64-40-64-33 0-39 30-40 65 0 43 13 65 39 65" id="Z"/><path fill="#333" d="M85 4C-2 5 27-109 22-190h50c7 57-23 150 33 157 60-5 35-97 40-157h50l1 190h-47c-2-12 1-28-3-38-12 25-28 42-61 42" id="aa"/><path fill="#333" d="M137-138c1-29-70-34-71-4 15 46 118 7 119 86 1 83-164 76-172 9l43-7c4 19 20 25 44 25 33 8 57-30 24-41C81-84 22-81 20-136c-2-80 154-74 161-7" id="ab"/><path fill="#333" d="M115-3C79 11 28 4 28-45v-112H4v-33h27l15-45h31v45h36v33H77v99c-1 23 16 31 38 25v30" id="ac"/><g id="h"><use transform="matrix(0.04938271604938272,0,0,0.04938271604938272,0,0)" xlink:href="#X"/><use transform="matrix(0.04938271604938272,0,0,0.04938271604938272,12.790123456790125,0)" xlink:href="#Y"/><use transform="matrix(0.04938271604938272,0,0,0.04938271604938272,22.66666666666667,0)" xlink:href="#Z"/><use transform="matrix(0.04938271604938272,0,0,0.04938271604938272,33.48148148148149,0)" xlink:href="#aa"/><use transform="matrix(0.04938271604938272,0,0,0.04938271604938272,44.296296296296305,0)" xlink:href="#Y"/><use transform="matrix(0.04938271604938272,0,0,0.04938271604938272,54.17283950617284,0)" xlink:href="#ab"/><use transform="matrix(0.04938271604938272,0,0,0.04938271604938272,64.0493827160494,0)" xlink:href="#ac"/></g><path fill="#333" d="M135-150c-39-12-60 13-60 57V0H25l-1-190h47c2 13-1 29 3 40 6-28 27-53 61-41v41" id="ad"/><path fill="#333" d="M110-194c64 0 96 36 96 99 0 64-35 99-97 99-61 0-95-36-95-99 0-62 34-99 96-99zm-1 164c35 0 45-28 45-65 0-40-10-65-43-65-34 0-45 26-45 65 0 36 10 65 43 65" id="ae"/><path fill="#333" d="M190-63c-7 42-38 67-86 67-59 0-84-38-90-98-12-110 154-137 174-36l-49 2c-2-19-15-32-35-32-30 0-35 28-38 64-6 74 65 87 74 30" id="af"/><g id="i"><use transform="matrix(0.04938271604938272,0,0,0.04938271604938272,0,0)" xlink:href="#ad"/><use transform="matrix(0.04938271604938272,0,0,0.04938271604938272,6.913580246913581,0)" xlink:href="#Y"/><use transform="matrix(0.04938271604938272,0,0,0.04938271604938272,16.790123456790127,0)" xlink:href="#ab"/><use transform="matrix(0.04938271604938272,0,0,0.04938271604938272,26.666666666666668,0)" xlink:href="#ae"/><use transform="matrix(0.04938271604938272,0,0,0.04938271604938272,37.48148148148149,0)" xlink:href="#aa"/><use transform="matrix(0.04938271604938272,0,0,0.04938271604938272,48.296296296296305,0)" xlink:href="#ad"/><use transform="matrix(0.04938271604938272,0,0,0.04938271604938272,55.209876543209894,0)" xlink:href="#af"/><use transform="matrix(0.04938271604938272,0,0,0.04938271604938272,65.08641975308643,0)" xlink:href="#Y"/></g><path fill="#333" d="M182-182c0 78-84 86-111 141h115V0H12c-6-101 99-100 120-180 1-22-12-31-33-32-23 0-32 14-35 34l-49-3c5-45 32-70 84-70 51 0 83 22 83 69" id="ag"/><use transform="matrix(0.04938271604938272,0,0,0.04938271604938272,0,0)" xlink:href="#ag" id="j"/><path fill="#333" d="M24-248c93 1 206-16 204 79-1 75-69 88-152 82V0H24v-248zm52 121c47 0 100 7 100-41 0-47-54-39-100-39v80" id="ah"/><path fill="#333" d="M135-194c87-1 58 113 63 194h-50c-7-57 23-157-34-157-59 0-34 97-39 157H25l-1-190h47c2 12-1 28 3 38 12-26 28-41 61-42" id="ai"/><g id="k"><use transform="matrix(0.04938271604938272,0,0,0.04938271604938272,0,0)" xlink:href="#ah"/><use transform="matrix(0.04938271604938272,0,0,0.04938271604938272,11.851851851851853,0)" xlink:href="#ad"/><use transform="matrix(0.04938271604938272,0,0,0.04938271604938272,18.765432098765434,0)" xlink:href="#Y"/><use transform="matrix(0.04938271604938272,0,0,0.04938271604938272,28.641975308641978,0)" xlink:href="#ab"/><use transform="matrix(0.04938271604938272,0,0,0.04938271604938272,38.51851851851852,0)" xlink:href="#Y"/><use transform="matrix(0.04938271604938272,0,0,0.04938271604938272,48.39506172839506,0)" xlink:href="#ai"/><use transform="matrix(0.04938271604938272,0,0,0.04938271604938272,59.20987654320988,0)" xlink:href="#ac"/><use transform="matrix(0.04938271604938272,0,0,0.04938271604938272,65.08641975308642,0)" xlink:href="#ab"/></g><path fill="#333" d="M128 0H69L1-190h53L99-40l48-150h52" id="aj"/><g id="l"><use transform="matrix(0.04938271604938272,0,0,0.04938271604938272,0,0)" xlink:href="#ab"/><use transform="matrix(0.04938271604938272,0,0,0.04938271604938272,9.876543209876544,0)" xlink:href="#Y"/><use transform="matrix(0.04938271604938272,0,0,0.04938271604938272,19.75308641975309,0)" xlink:href="#ad"/><use transform="matrix(0.04938271604938272,0,0,0.04938271604938272,26.666666666666668,0)" xlink:href="#aj"/><use transform="matrix(0.04938271604938272,0,0,0.04938271604938272,36.543209876543216,0)" xlink:href="#Y"/><use transform="matrix(0.04938271604938272,0,0,0.04938271604938272,46.41975308641976,0)" xlink:href="#ad"/></g><path fill="#333" d="M25-224v-37h50v37H25zM25 0v-190h50V0H25" id="ak"/><path fill="#333" d="M121-226c-27-7-43 5-38 36h38v33H83V0H34v-157H6v-33h28c-9-59 32-81 87-68v32" id="al"/><path fill="#333" d="M133-34C117-15 103 5 69 4 32 3 11-16 11-54c-1-60 55-63 116-61 1-26-3-47-28-47-18 1-26 9-28 27l-52-2c7-38 36-58 82-57s74 22 75 68l1 82c-1 14 12 18 25 15v27c-30 8-71 5-69-32zm-48 3c29 0 43-24 42-57-32 0-66-3-65 30 0 17 8 27 23 27" id="am"/><g id="m"><use transform="matrix(0.04938271604938272,0,0,0.04938271604938272,0,0)" xlink:href="#af"/><use transform="matrix(0.04938271604938272,0,0,0.04938271604938272,9.876543209876544,0)" xlink:href="#Y"/><use transform="matrix(0.04938271604938272,0,0,0.04938271604938272,19.75308641975309,0)" xlink:href="#ad"/><use transform="matrix(0.04938271604938272,0,0,0.04938271604938272,26.666666666666668,0)" xlink:href="#ac"/><use transform="matrix(0.04938271604938272,0,0,0.04938271604938272,32.543209876543216,0)" xlink:href="#ak"/><use transform="matrix(0.04938271604938272,0,0,0.04938271604938272,37.48148148148149,0)" xlink:href="#al"/><use transform="matrix(0.04938271604938272,0,0,0.04938271604938272,43.35802469135803,0)" xlink:href="#ak"/><use transform="matrix(0.04938271604938272,0,0,0.04938271604938272,48.296296296296305,0)" xlink:href="#af"/><use transform="matrix(0.04938271604938272,0,0,0.04938271604938272,58.17283950617284,0)" xlink:href="#am"/><use transform="matrix(0.04938271604938272,0,0,0.04938271604938272,68.0493827160494,0)" xlink:href="#ac"/><use transform="matrix(0.04938271604938272,0,0,0.04938271604938272,73.92592592592594,0)" xlink:href="#Y"/></g><path fill="#dd3522" d="M212-179c-10-28-35-45-73-45-59 0-87 40-87 99 0 60 29 101 89 101 43 0 62-24 78-52l27 14C228-24 195 4 139 4 59 4 22-46 18-125c-6-104 99-153 187-111 19 9 31 26 39 46" id="an"/><path fill="#dd3522" d="M100-194c63 0 86 42 84 106H49c0 40 14 67 53 68 26 1 43-12 49-29l28 8c-11 28-37 45-77 45C44 4 14-33 15-96c1-61 26-98 85-98zm52 81c6-60-76-77-97-28-3 7-6 17-6 28h103" id="ao"/><path fill="#dd3522" d="M114-163C36-179 61-72 57 0H25l-1-190h30c1 12-1 29 2 39 6-27 23-49 58-41v29" id="ap"/><path fill="#dd3522" d="M59-47c-2 24 18 29 38 22v24C64 9 27 4 27-40v-127H5v-23h24l9-43h21v43h35v23H59v120" id="aq"/><path fill="#dd3522" d="M24-231v-30h32v30H24zM24 0v-190h32V0H24" id="ar"/><path fill="#dd3522" d="M101-234c-31-9-42 10-38 44h38v23H63V0H32v-167H5v-23h27c-7-52 17-82 69-68v24" id="as"/><path fill="#dd3522" d="M96-169c-40 0-48 33-48 73s9 75 48 75c24 0 41-14 43-38l32 2c-6 37-31 61-74 61-59 0-76-41-82-99-10-93 101-131 147-64 4 7 5 14 7 22l-32 3c-4-21-16-35-41-35" id="at"/><path fill="#dd3522" d="M141-36C126-15 110 5 73 4 37 3 15-17 15-53c-1-64 63-63 125-63 3-35-9-54-41-54-24 1-41 7-42 31l-33-3c5-37 33-52 76-52 45 0 72 20 72 64v82c-1 20 7 32 28 27v20c-31 9-61-2-59-35zM48-53c0 20 12 33 32 33 41-3 63-29 60-74-43 2-92-5-92 41" id="au"/><g id="n"><use transform="matrix(0.05,0,0,0.05,0,0)" xlink:href="#an"/><use transform="matrix(0.05,0,0,0.05,12.950000000000001,0)" xlink:href="#ao"/><use transform="matrix(0.05,0,0,0.05,22.950000000000003,0)" xlink:href="#ap"/><use transform="matrix(0.05,0,0,0.05,28.900000000000002,0)" xlink:href="#aq"/><use transform="matrix(0.05,0,0,0.05,33.900000000000006,0)" xlink:href="#ar"/><use transform="matrix(0.05,0,0,0.05,37.85000000000001,0)" xlink:href="#as"/><use transform="matrix(0.05,0,0,0.05,42.85000000000001,0)" xlink:href="#ar"/><use transform="matrix(0.05,0,0,0.05,46.80000000000001,0)" xlink:href="#at"/><use transform="matrix(0.05,0,0,0.05,55.80000000000001,0)" xlink:href="#au"/><use transform="matrix(0.05,0,0,0.05,65.80000000000001,0)" xlink:href="#aq"/><use transform="matrix(0.05,0,0,0.05,70.80000000000001,0)" xlink:href="#ao"/></g><path fill="#dd3522" d="M205 0l-28-72H64L36 0H1l101-248h38L239 0h-34zm-38-99l-47-123c-12 45-31 82-46 123h93" id="av"/><path fill="#dd3522" d="M84 4C-5 8 30-112 23-190h32v120c0 31 7 50 39 49 72-2 45-101 50-169h31l1 190h-30c-1-10 1-25-2-33-11 22-28 36-60 37" id="aw"/><path fill="#dd3522" d="M106-169C34-169 62-67 57 0H25v-261h32l-1 103c12-21 28-36 61-36 89 0 53 116 60 194h-32v-121c2-32-8-49-39-48" id="ax"/><path fill="#dd3522" d="M100-194c62-1 85 37 85 99 1 63-27 99-86 99S16-35 15-95c0-66 28-99 85-99zM99-20c44 1 53-31 53-75 0-43-8-75-51-75s-53 32-53 75 10 74 51 75" id="ay"/><path fill="#dd3522" d="M179-190L93 31C79 59 56 82 12 73V49c39 6 53-20 64-50L1-190h34L92-34l54-156h33" id="az"/><g id="o"><use transform="matrix(0.05,0,0,0.05,0,0)" xlink:href="#av"/><use transform="matrix(0.05,0,0,0.05,12,0)" xlink:href="#aw"/><use transform="matrix(0.05,0,0,0.05,22,0)" xlink:href="#aq"/><use transform="matrix(0.05,0,0,0.05,27,0)" xlink:href="#ax"/><use transform="matrix(0.05,0,0,0.05,37,0)" xlink:href="#ay"/><use transform="matrix(0.05,0,0,0.05,47,0)" xlink:href="#ap"/><use transform="matrix(0.05,0,0,0.05,52.95,0)" xlink:href="#ar"/><use transform="matrix(0.05,0,0,0.05,56.900000000000006,0)" xlink:href="#aq"/><use transform="matrix(0.05,0,0,0.05,61.900000000000006,0)" xlink:href="#az"/></g><path d="M212-179c-10-28-35-45-73-45-59 0-87 40-87 99 0 60 29 101 89 101 43 0 62-24 78-52l27 14C228-24 195 4 139 4 59 4 22-46 18-125c-6-104 99-153 187-111 19 9 31 26 39 46" id="aA"/><path d="M205 0l-28-72H64L36 0H1l101-248h38L239 0h-34zm-38-99l-47-123c-12 45-31 82-46 123h93" id="aB"/><g id="p"><use transform="matrix(0.05,0,0,0.05,0,0)" xlink:href="#aA"/><use transform="matrix(0.05,0,0,0.05,12.950000000000001,0)" xlink:href="#aB"/></g><path d="M114-163C36-179 61-72 57 0H25l-1-190h30c1 12-1 29 2 39 6-27 23-49 58-41v29" id="aC"/><path d="M100-194c62-1 85 37 85 99 1 63-27 99-86 99S16-35 15-95c0-66 28-99 85-99zM99-20c44 1 53-31 53-75 0-43-8-75-51-75s-53 32-53 75 10 74 51 75" id="aD"/><path d="M59-47c-2 24 18 29 38 22v24C64 9 27 4 27-40v-127H5v-23h24l9-43h21v43h35v23H59v120" id="aE"/><g id="q"><use transform="matrix(0.05,0,0,0.05,0,0)" xlink:href="#aC"/><use transform="matrix(0.05,0,0,0.05,5.95,0)" xlink:href="#aD"/><use transform="matrix(0.05,0,0,0.05,15.949999999999998,0)" xlink:href="#aD"/><use transform="matrix(0.05,0,0,0.05,25.950000000000003,0)" xlink:href="#aE"/></g><path d="M96-169c-40 0-48 33-48 73s9 75 48 75c24 0 41-14 43-38l32 2c-6 37-31 61-74 61-59 0-76-41-82-99-10-93 101-131 147-64 4 7 5 14 7 22l-32 3c-4-21-16-35-41-35" id="aF"/><path d="M100-194c63 0 86 42 84 106H49c0 40 14 67 53 68 26 1 43-12 49-29l28 8c-11 28-37 45-77 45C44 4 14-33 15-96c1-61 26-98 85-98zm52 81c6-60-76-77-97-28-3 7-6 17-6 28h103" id="aG"/><path d="M24-231v-30h32v30H24zM24 0v-190h32V0H24" id="aH"/><path d="M101-234c-31-9-42 10-38 44h38v23H63V0H32v-167H5v-23h27c-7-52 17-82 69-68v24" id="aI"/><path d="M141-36C126-15 110 5 73 4 37 3 15-17 15-53c-1-64 63-63 125-63 3-35-9-54-41-54-24 1-41 7-42 31l-33-3c5-37 33-52 76-52 45 0 72 20 72 64v82c-1 20 7 32 28 27v20c-31 9-61-2-59-35zM48-53c0 20 12 33 32 33 41-3 63-29 60-74-43 2-92-5-92 41" id="aJ"/><g id="r"><use transform="matrix(0.05,0,0,0.05,0,0)" xlink:href="#aF"/><use transform="matrix(0.05,0,0,0.05,9,0)" xlink:href="#aG"/><use transform="matrix(0.05,0,0,0.05,19,0)" xlink:href="#aC"/><use transform="matrix(0.05,0,0,0.05,24.95,0)" xlink:href="#aE"/><use transform="matrix(0.05,0,0,0.05,29.950000000000003,0)" xlink:href="#aH"/><use transform="matrix(0.05,0,0,0.05,33.9,0)" xlink:href="#aI"/><use transform="matrix(0.05,0,0,0.05,38.9,0)" xlink:href="#aH"/><use transform="matrix(0.05,0,0,0.05,42.85,0)" xlink:href="#aF"/><use transform="matrix(0.05,0,0,0.05,51.85,0)" xlink:href="#aJ"/><use transform="matrix(0.05,0,0,0.05,61.85,0)" xlink:href="#aE"/><use transform="matrix(0.05,0,0,0.05,66.85,0)" xlink:href="#aG"/></g><path fill="#333" d="M128-127c34 4 56 21 59 58 7 91-148 94-172 28-4-9-6-17-7-26l51-5c1 24 16 35 40 36 23 0 39-12 38-36-1-31-31-36-65-34v-40c32 2 59-3 59-33 0-20-13-33-34-33s-33 13-35 32l-50-3c6-44 37-68 86-68 50 0 83 20 83 66 0 35-22 52-53 58" id="aK"/><use transform="matrix(0.04938271604938272,0,0,0.04938271604938272,0,0)" xlink:href="#aK" id="s"/><g id="t"><use transform="matrix(0.04938271604938272,0,0,0.04938271604938272,0,0)" xlink:href="#aj"/><use transform="matrix(0.04938271604938272,0,0,0.04938271604938272,9.876543209876544,0)" xlink:href="#Y"/><use transform="matrix(0.04938271604938272,0,0,0.04938271604938272,19.75308641975309,0)" xlink:href="#ad"/><use transform="matrix(0.04938271604938272,0,0,0.04938271604938272,26.666666666666668,0)" xlink:href="#ak"/><use transform="matrix(0.04938271604938272,0,0,0.04938271604938272,31.60493827160494,0)" xlink:href="#al"/><use transform="matrix(0.04938271604938272,0,0,0.04938271604938272,37.48148148148149,0)" xlink:href="#ak"/><use transform="matrix(0.04938271604938272,0,0,0.04938271604938272,42.41975308641976,0)" xlink:href="#Y"/><use transform="matrix(0.04938271604938272,0,0,0.04938271604938272,52.2962962962963,0)" xlink:href="#ab"/></g><path fill="#333" d="M165-50V0h-47v-50H5v-38l105-160h55v161h33v37h-33zm-47-37l2-116L46-87h72" id="aL"/><use transform="matrix(0.04938271604938272,0,0,0.04938271604938272,0,0)" xlink:href="#aL" id="u"/><path fill="#333" d="M25 0v-261h50V0H25" id="aM"/><g id="v"><use transform="matrix(0.04938271604938272,0,0,0.04938271604938272,0,0)" xlink:href="#af"/><use transform="matrix(0.04938271604938272,0,0,0.04938271604938272,9.876543209876544,0)" xlink:href="#aM"/><use transform="matrix(0.04938271604938272,0,0,0.04938271604938272,14.814814814814817,0)" xlink:href="#ak"/><use transform="matrix(0.04938271604938272,0,0,0.04938271604938272,19.75308641975309,0)" xlink:href="#Y"/><use transform="matrix(0.04938271604938272,0,0,0.04938271604938272,29.629629629629633,0)" xlink:href="#ai"/><use transform="matrix(0.04938271604938272,0,0,0.04938271604938272,40.44444444444445,0)" xlink:href="#ac"/></g><path fill="#333" d="M139-81c0-46-55-55-73-27H18l9-140h149v37H72l-4 63c44-38 133-4 122 66C201 21 21 35 11-62l49-4c5 18 15 30 39 30 26 0 40-18 40-45" id="aN"/><use transform="matrix(0.04938271604938272,0,0,0.04938271604938272,0,0)" xlink:href="#aN" id="w"/><path fill="#333" d="M115-159c48 0 72 30 72 78 0 54-30 85-83 85-64 0-91-50-91-122 0-98 58-163 141-120 15 8 21 24 27 44l-47 6c-5-31-48-31-61-4-7 14-11 33-11 60 9-17 28-27 53-27zM102-35c24 0 36-20 36-45s-11-43-37-43c-23 0-36 14-36 38 0 27 11 50 37 50" id="aO"/><use transform="matrix(0.04938271604938272,0,0,0.04938271604938272,0,0)" xlink:href="#aO" id="x"/><path fill="#333" d="M199 0l-22-63H83L61 0H9l90-248h61L250 0h-51zm-33-102l-36-108c-10 38-24 72-36 108h72" id="aP"/><g id="y"><use transform="matrix(0.04938271604938272,0,0,0.04938271604938272,0,0)" xlink:href="#aP"/><use transform="matrix(0.04938271604938272,0,0,0.04938271604938272,12.790123456790125,0)" xlink:href="#af"/><use transform="matrix(0.04938271604938272,0,0,0.04938271604938272,22.66666666666667,0)" xlink:href="#af"/><use transform="matrix(0.04938271604938272,0,0,0.04938271604938272,32.543209876543216,0)" xlink:href="#Y"/><use transform="matrix(0.04938271604938272,0,0,0.04938271604938272,42.41975308641976,0)" xlink:href="#ab"/><use transform="matrix(0.04938271604938272,0,0,0.04938271604938272,52.2962962962963,0)" xlink:href="#ab"/></g><path d="M24 0v-261h32V0H24" id="aQ"/><path d="M117-194c89-4 53 116 60 194h-32v-121c0-31-8-49-39-48C34-167 62-67 57 0H25l-1-190h30c1 10-1 24 2 32 11-22 29-35 61-36" id="aR"/><g id="z"><use transform="matrix(0.05,0,0,0.05,0,0)" xlink:href="#aA"/><use transform="matrix(0.05,0,0,0.05,12.950000000000001,0)" xlink:href="#aQ"/><use transform="matrix(0.05,0,0,0.05,16.900000000000002,0)" xlink:href="#aH"/><use transform="matrix(0.05,0,0,0.05,20.85,0)" xlink:href="#aG"/><use transform="matrix(0.05,0,0,0.05,30.85,0)" xlink:href="#aR"/><use transform="matrix(0.05,0,0,0.05,40.85,0)" xlink:href="#aE"/></g><path d="M185-189c-5-48-123-54-124 2 14 75 158 14 163 119 3 78-121 87-175 55-17-10-28-26-33-46l33-7c5 56 141 63 141-1 0-78-155-14-162-118-5-82 145-84 179-34 5 7 8 16 11 25" id="aS"/><path d="M108 0H70L1-190h34L89-25l56-165h34" id="aT"/><g id="A"><use transform="matrix(0.05,0,0,0.05,0,0)" xlink:href="#aS"/><use transform="matrix(0.05,0,0,0.05,12,0)" xlink:href="#aG"/><use transform="matrix(0.05,0,0,0.05,22,0)" xlink:href="#aC"/><use transform="matrix(0.05,0,0,0.05,27.950000000000003,0)" xlink:href="#aT"/><use transform="matrix(0.05,0,0,0.05,36.95,0)" xlink:href="#aG"/><use transform="matrix(0.05,0,0,0.05,46.95,0)" xlink:href="#aC"/></g></defs></g></svg>